<svg width="140" height="140" viewBox="0 0 140 140" fill="none" xmlns="http://www.w3.org/2000/svg">
<path fill-rule="evenodd" clip-rule="evenodd" d="M122.5 122.333L122.5 77.6667C122.5 79.5524 122.5 80.4952 121.914 81.081C121.328 81.6667 120.386 81.6667 118.5 81.6667H94.7748C94.0791 81.6667 93.7313 81.6667 93.4694 81.8555C93.2075 82.0443 93.0975 82.3743 92.8775 83.0343L87.9558 97.7992C87.7358 98.4592 87.6258 98.7892 87.364 98.978C87.1021 99.1667 86.7542 99.1667 86.0585 99.1667H53.9415C53.2458 99.1667 52.8979 99.1667 52.636 98.978C52.3742 98.7892 52.2642 98.4593 52.0442 97.7993L52.0442 97.7992L52.0442 97.7992L47.1225 83.0343L47.1225 83.0343L47.1225 83.0342C46.9025 82.3742 46.7925 82.0443 46.5306 81.8555C46.2687 81.6667 45.9209 81.6667 45.2251 81.6667H21.5C19.6144 81.6667 18.6716 81.6667 18.0858 81.081C17.5 80.4952 17.5 79.5524 17.5 77.6667V122.333C17.5 125.162 17.5 126.576 18.3787 127.455C19.2574 128.333 20.6716 128.333 23.5 128.333H116.5C119.328 128.333 120.743 128.333 121.621 127.455C122.5 126.576 122.5 125.162 122.5 122.333Z" fill="#7D7D7D"/>
<path d="M93.3333 35H118.5C120.386 35 121.328 35 121.914 35.5858C122.5 36.1716 122.5 37.1144 122.5 39V124.333C122.5 126.219 122.5 127.162 121.914 127.748C121.328 128.333 120.386 128.333 118.5 128.333H21.5C19.6144 128.333 18.6716 128.333 18.0858 127.748C17.5 127.162 17.5 126.219 17.5 124.333V39C17.5 37.1144 17.5 36.1716 18.0858 35.5858C18.6716 35 19.6144 35 21.5 35H46.6667" stroke="#7D7D7D" stroke-width="4"/>
<path d="M46.666 58.3333L69.9993 75.8333M69.9993 75.8333L93.3327 58.3333M69.9993 75.8333L69.9994 17.4999" stroke="#7D7D7D" stroke-width="4"/>
</svg>
