<svg width="12" height="12" viewBox="0 0 12 12" fill="none" xmlns="http://www.w3.org/2000/svg">
<g clip-path="url(#clip0_271_1586)">
<path d="M1.59718 11.625H0.37501V5.51562C0.373889 5.09827 0.470405 4.68645 0.656846 4.31306C0.909979 3.75446 1.31859 3.28055 1.83385 2.94796C2.34911 2.61537 2.94923 2.43815 3.56251 2.4375H6.76306V0.375H7.7559L11.5928 4.21195L7.74228 8.0625H6.76306V6H4.68153C4.24613 6.00106 3.82296 6.14406 3.47616 6.40733C3.12937 6.67059 2.87788 7.03975 2.75982 7.45884L1.59718 11.625ZM3.56251 3.1875C3.09243 3.188 2.63247 3.32414 2.23785 3.57958C1.84322 3.83502 1.53069 4.19891 1.33775 4.62757L1.33091 4.64196C1.19466 4.91298 1.12412 5.21227 1.12501 5.51562V10.5268L2.03743 7.25726C2.19985 6.68062 2.54588 6.17267 3.02304 5.81044C3.5002 5.44821 4.08246 5.25145 4.68153 5.25H7.51306V7.23105L10.5322 4.21195L7.51306 1.19283V3.1875H3.56251Z" fill="#1968FC"/>
</g>
<defs>
<clipPath id="clip0_271_1586">
<rect width="12" height="12" fill="white"/>
</clipPath>
</defs>
</svg>
