<svg width="65" height="65" viewBox="0 0 65 65" fill="none" xmlns="http://www.w3.org/2000/svg">
<circle cx="32.665" cy="32.4529" r="32" fill="#EBF7FF"/>
<path d="M40.5113 13.9578H24.0954C22.5525 13.9578 21.2964 15.214 21.2964 16.7568V47.7297C21.2964 49.2726 22.5525 50.5287 24.0954 50.5287H40.5052C42.0481 50.5287 43.3043 49.2726 43.3043 47.7297V16.7508C43.3043 15.2079 42.0481 13.9573 40.5111 13.9573L40.5113 13.9578ZM36.571 14.9618V16.4303C36.571 16.786 36.2842 17.0783 35.923 17.0783H28.6844C28.3287 17.0783 28.0364 16.7915 28.0364 16.4303L28.0362 14.9618H36.571ZM22.3061 16.7514C22.3061 15.7648 23.1091 14.956 24.1015 14.956H27.0381V16.4245C27.0381 17.3365 27.778 18.0765 28.6901 18.0765H35.9341C36.8403 18.0765 37.5861 17.3366 37.5861 16.4245L37.5858 14.9618H40.5224C41.509 14.9618 42.3178 15.7648 42.3178 16.7572V43.4624L22.3056 43.4622L22.3061 16.7514ZM42.3008 47.7242C42.3008 48.7107 41.4977 49.5196 40.5054 49.5196H24.0956C23.109 49.5196 22.3002 48.7166 22.3002 47.7242V44.4607H42.2948V47.7242H42.3008Z" fill="#2B69C5"/>
<path d="M32.3034 48.636C33.2096 48.636 33.9554 47.8962 33.9554 46.984C33.9554 46.072 33.2155 45.332 32.3034 45.332C31.3912 45.332 30.6514 46.0719 30.6514 46.984C30.6514 47.8961 31.3971 48.636 32.3034 48.636ZM32.3034 46.3416C32.6591 46.3416 32.9514 46.6284 32.9514 46.9896C32.9514 47.3509 32.6646 47.6376 32.3034 47.6376C31.9421 47.6376 31.6554 47.3509 31.6554 46.9896C31.6554 46.6287 31.9477 46.3416 32.3034 46.3416Z" fill="#2B69C5"/>
<path d="M29.6994 20.9615C29.5042 20.7664 29.1831 20.7664 28.9882 20.9615L25.369 24.5808C25.1739 24.7759 25.1739 25.097 25.369 25.2919C25.4664 25.3893 25.5985 25.4411 25.7247 25.4411C25.8509 25.4411 25.9827 25.3896 26.0804 25.2919L29.6996 21.6727C29.8942 21.472 29.8942 21.1567 29.6993 20.9615H29.6994Z" fill="#2B69C5"/>
<path d="M30.8007 22.7677L27.1815 26.387C26.9864 26.5821 26.9864 26.9032 27.1815 27.0981C27.2789 27.1955 27.411 27.2473 27.5372 27.2473C27.6634 27.2473 27.7952 27.1958 27.8929 27.0981L31.5121 23.4789C31.7072 23.2837 31.7072 22.9626 31.5121 22.7677C31.317 22.5729 30.9959 22.5729 30.8008 22.7677H30.8007Z" fill="#2B69C5"/>
</svg>
