<svg width="483" height="560" viewBox="0 0 483 560" fill="none" xmlns="http://www.w3.org/2000/svg">
<circle opacity="0.2" cx="231.5" cy="271.5" r="271.5" fill="#F8A435"/>
<circle opacity="0.2" cx="450" cy="221" r="196" fill="#F79008"/>
<g clip-path="url(#clip0_90_187)">
<path d="M421.983 438.881C422.051 482.211 407.715 524.33 381.238 558.588H71.7449C45.2683 524.33 30.9323 482.211 31 438.881C31 330.695 118.527 243 226.496 243C334.464 243 421.983 330.695 421.983 438.881Z" fill="#467DCF"/>
<path d="M425.068 245.505H269.976C254.848 245.505 242.585 257.793 242.585 272.951V272.951C242.585 288.109 254.848 300.397 269.976 300.397H425.068C440.196 300.397 452.459 288.109 452.459 272.951V272.951C452.459 257.793 440.196 245.505 425.068 245.505Z" fill="white"/>
<path d="M425.068 300.939H269.976C262.59 300.904 255.52 297.94 250.31 292.695C245.1 287.45 242.175 280.351 242.175 272.951C242.175 265.551 245.1 258.452 250.31 253.207C255.52 247.962 262.59 244.998 269.976 244.963H425.068C428.747 244.946 432.394 245.657 435.797 247.056C439.201 248.455 442.296 250.513 444.904 253.114C447.511 255.715 449.58 258.806 450.992 262.21C452.404 265.614 453.131 269.264 453.131 272.951C453.131 276.637 452.404 280.288 450.992 283.692C449.58 287.096 447.511 290.187 444.904 292.788C442.296 295.388 439.201 297.447 435.797 298.846C432.394 300.245 428.747 300.956 425.068 300.939ZM269.976 246.047C262.855 246.047 256.026 248.881 250.99 253.927C245.955 258.972 243.127 265.815 243.127 272.95C243.127 280.085 245.955 286.928 250.99 291.973C256.026 297.019 262.855 299.853 269.976 299.853H425.068C432.189 299.853 439.018 297.019 444.053 291.973C449.089 286.928 451.917 280.085 451.917 272.95C451.917 265.815 449.089 258.972 444.053 253.927C439.018 248.881 432.189 246.047 425.068 246.047H269.976Z" fill="#474646"/>
<path d="M142.917 307.849C142.917 307.849 141.247 327.655 136.668 334.771C123.483 355.255 119.358 378.489 131.979 390.89C144.599 403.29 226.467 404.912 233.164 377.024C238.803 353.545 227.642 350.811 225.26 331.317C224.182 322.497 221.115 303.987 221.115 303.987" fill="#474646"/>
<path d="M212.772 372.248C212.63 372.229 211.062 398.307 180.827 396.034C159.896 394.463 152.433 372.209 151.951 372.209C154.207 371.728 158.008 371.029 159.01 370.494C162.306 368.719 166.383 366.872 167.446 360.459C168.061 356.765 167.02 337.851 167.34 334.11L199.469 341.295C199.02 349.194 195.878 367.506 206.891 370.747C208.726 371.287 210.7 371.779 212.772 372.248Z" fill="#E98862"/>
<path opacity="0.5" d="M199.922 363.267C199.419 361.641 199.095 359.966 198.956 358.27C198.602 354.4 198.673 350.503 199.166 346.648C192.636 345.765 186.484 343.064 181.41 338.853C180.813 341.061 177.532 350.708 178.441 352.806C180.156 356.769 188.224 363.267 199.922 363.267Z" fill="#474646"/>
<path d="M195.346 355.139C182.659 356.142 166.361 350.774 163.266 333.813L160.472 318.51C157.377 301.549 163.758 286.171 179.695 283.25C195.632 280.33 210.054 291.896 213.15 308.856L214.386 315.632C215.575 322.14 217.982 353.349 195.346 355.139Z" fill="#E98862"/>
<path d="M147.705 323.759L161.991 321.225C172.825 316.91 176.209 298.184 176.209 298.184C176.209 298.184 189.257 311.084 221.115 303.989C221.115 303.989 215.009 259.495 167.931 272.132C152.751 276.206 141.781 291.441 143.011 311.902C143.872 326.238 147.705 323.759 147.705 323.759Z" fill="#474646"/>
<path d="M165.199 338.799C160.356 339.687 155.482 335.215 154.596 330.362C153.71 325.509 157.148 322.112 161.991 321.225L165.08 324.019L169.363 338.036L165.199 338.799Z" fill="#E98862"/>
<path d="M117.796 527.194L114.168 559.384H245.709L243.681 526.992L117.796 527.194Z" fill="#474646"/>
<path d="M180.134 389.552C159.188 388.564 158.306 370.749 158.306 370.749C158.306 370.749 147.928 371.421 141.028 372.356C129.733 373.888 117.759 377.774 112.325 387.184C108.418 393.95 107.478 395.175 111.031 433.357C113.604 461.002 117.796 527.195 117.796 527.195L243.681 526.993C243.681 526.993 249.283 442.106 250.34 429.66C252.357 405.904 255.54 372.419 248.782 370.748C240.909 368.801 215.207 372.002 206.894 370.748C206.754 370.729 208.658 390.9 180.134 389.552Z" fill="#F8A435"/>
<path d="M403.239 296.433C403.423 296.019 403.688 295.646 404.02 295.338C404.352 295.03 404.742 294.793 405.169 294.641C405.595 294.489 406.047 294.426 406.499 294.456C406.95 294.485 407.391 294.606 407.794 294.812C408.56 295.237 409.137 295.938 409.408 296.772C409.678 297.607 409.622 298.514 409.251 299.309L407.43 303.428L419.133 293.073C420.414 291.899 422.736 291.279 423.956 292.805C424.463 293.362 424.766 294.075 424.817 294.827C424.868 295.579 424.663 296.326 424.235 296.946C424.251 296.956 424.265 296.967 424.278 296.981C424.285 296.991 424.291 297.002 424.297 297.014L426.273 295.203C426.636 294.87 427.07 294.622 427.541 294.477C428.012 294.332 428.509 294.294 428.997 294.364C429.484 294.435 429.95 294.613 430.361 294.886C430.772 295.159 431.117 295.519 431.372 295.942C431.764 296.625 431.909 297.423 431.782 298.2C431.654 298.978 431.262 299.688 430.673 300.209L429.832 300.979C429.844 301.015 429.849 301.053 429.847 301.09C430.528 300.705 431.323 300.572 432.092 300.716C432.861 300.86 433.555 301.271 434.052 301.877C434.584 302.574 434.832 303.448 434.745 304.322C434.658 305.195 434.244 306.003 433.586 306.582L431.519 308.476C431.568 308.47 431.617 308.475 431.663 308.492C431.709 308.508 431.75 308.536 431.784 308.572C431.821 308.616 431.845 308.671 431.852 308.729C432.542 308.558 433.268 308.613 433.925 308.885C434.581 309.158 435.133 309.634 435.501 310.243C435.893 310.926 436.038 311.724 435.91 312.502C435.783 313.279 435.391 313.989 434.802 314.51L417.185 330.658C414.72 332.916 411.638 334.386 408.334 334.878C405.031 335.371 401.655 334.863 398.641 333.421L388.938 328.776L403.239 296.433Z" fill="#E98862"/>
<g opacity="0.2">
<path opacity="0.2" d="M412.705 307.256C412.759 307.315 412.835 307.351 412.916 307.355C412.996 307.359 413.075 307.331 413.135 307.277L424.252 297.415C424.282 297.389 424.307 297.356 424.324 297.32C424.342 297.283 424.352 297.244 424.355 297.203C424.357 297.163 424.352 297.123 424.339 297.084C424.326 297.046 424.305 297.011 424.278 296.981C424.251 296.95 424.219 296.926 424.183 296.908C424.146 296.89 424.107 296.88 424.067 296.877C424.027 296.875 423.986 296.88 423.948 296.894C423.91 296.907 423.875 296.927 423.844 296.954L412.724 306.817C412.694 306.843 412.669 306.876 412.651 306.912C412.634 306.949 412.623 306.988 412.621 307.029C412.619 307.069 412.624 307.109 412.637 307.148C412.651 307.186 412.671 307.221 412.698 307.251L412.705 307.256Z" fill="#474646"/>
</g>
<g opacity="0.2">
<path opacity="0.2" d="M416.911 312.289C416.966 312.348 417.041 312.384 417.122 312.388C417.202 312.392 417.281 312.364 417.341 312.311L429.748 301.304C429.778 301.277 429.802 301.244 429.82 301.208C429.838 301.172 429.848 301.132 429.851 301.092C429.853 301.051 429.848 301.011 429.834 300.973C429.821 300.935 429.801 300.899 429.774 300.869C429.718 300.81 429.643 300.775 429.562 300.77C429.482 300.765 429.402 300.791 429.34 300.843L416.933 311.849C416.903 311.876 416.878 311.909 416.861 311.945C416.843 311.982 416.833 312.021 416.83 312.061C416.828 312.102 416.834 312.142 416.847 312.18C416.86 312.219 416.881 312.254 416.907 312.284L416.911 312.289Z" fill="#474646"/>
</g>
<g opacity="0.2">
<path opacity="0.2" d="M421.434 317.766C421.489 317.826 421.564 317.861 421.645 317.865C421.725 317.869 421.804 317.841 421.864 317.788L431.762 309.008C431.823 308.954 431.86 308.878 431.864 308.796C431.869 308.715 431.842 308.635 431.788 308.573C431.734 308.512 431.657 308.475 431.576 308.47C431.495 308.465 431.415 308.493 431.354 308.547L421.457 317.327C421.427 317.354 421.402 317.386 421.384 317.422C421.367 317.459 421.356 317.498 421.354 317.539C421.351 317.579 421.357 317.619 421.37 317.658C421.383 317.696 421.404 317.731 421.43 317.761L421.434 317.766Z" fill="#474646"/>
</g>
<path d="M392.019 307.849L325.305 362.609L232.955 370.957C227.033 371.454 221.531 374.226 217.6 378.692C213.669 383.158 211.612 388.973 211.859 394.923C212.107 400.873 214.639 406.497 218.927 410.62C223.215 414.744 228.928 417.047 234.871 417.049C235.522 417.049 236.177 417.021 236.837 416.965L336.436 408.003C341.154 407.603 345.634 405.757 349.267 402.715L419.136 340.605L392.019 307.849Z" fill="#F8A435"/>
<path d="M406.815 304.967L409.251 299.309C409.622 298.514 409.678 297.607 409.408 296.772C409.137 295.938 408.56 295.237 407.794 294.812C407.391 294.606 406.95 294.485 406.499 294.456C406.047 294.426 405.595 294.489 405.169 294.641C404.742 294.793 404.352 295.03 404.02 295.338C403.688 295.646 403.423 296.019 403.239 296.433" fill="#E98862"/>
<path d="M232.636 474.732C232.569 475.606 232.173 476.423 231.527 477.016C230.882 477.609 230.036 477.934 229.16 477.924L226.36 477.958C226.4 477.986 226.433 478.022 226.455 478.065C226.478 478.108 226.49 478.156 226.49 478.204C226.491 478.263 226.473 478.321 226.439 478.369C227.067 478.702 227.572 479.229 227.88 479.871C228.187 480.513 228.282 481.237 228.149 481.936C227.985 482.707 227.562 483.398 226.949 483.892C226.336 484.386 225.573 484.654 224.786 484.65L200.917 484.909C197.577 484.947 194.302 483.984 191.512 482.144C188.722 480.304 186.544 477.671 185.258 474.582L181.111 464.636L193.813 461.927L194.117 458.754L213.296 450.085C213.708 449.899 214.154 449.798 214.606 449.79C215.058 449.782 215.508 449.866 215.926 450.038C216.345 450.209 216.724 450.464 217.041 450.787C217.358 451.111 217.606 451.495 217.77 451.917C218.058 452.746 218.022 453.654 217.669 454.457C217.315 455.26 216.671 455.899 215.865 456.245L211.763 458.097L227.377 458.202C229.116 458.182 231.258 459.27 231.15 461.218C231.159 461.972 230.912 462.707 230.45 463.303C229.988 463.898 229.339 464.319 228.607 464.496C228.607 464.515 228.611 464.529 228.612 464.548L228.602 464.583L231.28 464.555C231.773 464.549 232.262 464.654 232.71 464.86C233.159 465.067 233.556 465.371 233.872 465.75C234.189 466.129 234.418 466.574 234.542 467.053C234.666 467.532 234.682 468.032 234.589 468.518C234.428 469.288 234.006 469.978 233.394 470.472C232.783 470.966 232.019 471.232 231.234 471.227L230.089 471.243C230.073 471.274 230.054 471.303 230.033 471.33C230.796 471.501 231.475 471.935 231.951 472.557C232.427 473.179 232.669 473.949 232.636 474.732Z" fill="#E98862"/>
<g opacity="0.2">
<path opacity="0.2" d="M213.148 464.476C213.149 464.556 213.182 464.633 213.24 464.69C213.297 464.746 213.374 464.778 213.455 464.778L228.303 464.856C228.384 464.856 228.463 464.823 228.52 464.765C228.578 464.708 228.61 464.629 228.61 464.548C228.61 464.466 228.578 464.388 228.52 464.33C228.463 464.272 228.384 464.24 228.303 464.24L213.455 464.162C213.373 464.162 213.295 464.195 213.238 464.252C213.18 464.31 213.148 464.389 213.148 464.47V464.476Z" fill="#474646"/>
</g>
<g opacity="0.2">
<path opacity="0.2" d="M212.933 471.037C212.934 471.117 212.967 471.194 213.025 471.251C213.082 471.307 213.159 471.339 213.24 471.339L229.81 471.426C229.892 471.426 229.97 471.393 230.027 471.335C230.085 471.278 230.117 471.199 230.117 471.118C230.115 471.037 230.081 470.96 230.024 470.903C229.967 470.846 229.891 470.813 229.81 470.81L213.24 470.724C213.158 470.724 213.08 470.756 213.023 470.814C212.965 470.872 212.933 470.95 212.933 471.032V471.037Z" fill="#474646"/>
</g>
<g opacity="0.2">
<path opacity="0.2" d="M212.659 478.141C212.661 478.222 212.694 478.299 212.751 478.355C212.809 478.412 212.886 478.443 212.966 478.443L226.184 478.512C226.265 478.512 226.343 478.48 226.401 478.422C226.459 478.364 226.491 478.286 226.491 478.204C226.491 478.123 226.459 478.044 226.401 477.987C226.343 477.929 226.265 477.897 226.184 477.897L212.966 477.828C212.885 477.828 212.807 477.86 212.749 477.918C212.692 477.975 212.659 478.054 212.659 478.135V478.141Z" fill="#474646"/>
</g>
<path d="M199.684 492.027L99.743 509.866C95.5442 510.983 91.1159 510.887 86.9689 509.59C82.8219 508.294 79.1253 505.849 76.3056 502.537C73.4858 499.226 71.6577 495.183 71.0323 490.876C70.4069 486.568 71.0097 482.171 72.771 478.192L109.167 393.358C114.328 381.702 127.084 376.446 138.714 381.616C144.299 384.099 148.671 388.704 150.869 394.417C153.066 400.13 152.909 406.483 150.431 412.08L129.058 462.848L195.897 453.949L199.684 492.027Z" fill="#F8A435"/>
<path d="M116.966 507.217C116.995 507.217 117.024 507.213 117.051 507.204L199.769 492.323C199.845 492.301 199.911 492.25 199.95 492.18C199.99 492.11 200.001 492.028 199.981 491.95L196.194 452.64C196.174 452.561 196.124 452.494 196.055 452.453C195.986 452.411 195.904 452.399 195.825 452.417L129.611 462.404L150.703 412.213C150.734 412.14 150.736 412.059 150.708 411.985C150.68 411.911 150.625 411.851 150.554 411.817C150.482 411.782 150.401 411.777 150.326 411.801C150.251 411.825 150.188 411.877 150.151 411.947L128.781 462.714C128.757 462.767 128.747 462.825 128.754 462.882C128.761 462.939 128.784 462.993 128.82 463.038C128.856 463.083 128.904 463.117 128.959 463.136C129.013 463.155 129.072 463.158 129.128 463.145L195.675 453.082L199.31 491.812L116.881 506.615C116.81 506.635 116.748 506.681 116.707 506.743C116.667 506.805 116.65 506.88 116.661 506.954C116.671 507.028 116.708 507.095 116.764 507.144C116.82 507.192 116.892 507.219 116.966 507.219V507.217Z" fill="#474646"/>
<path d="M120.786 464.263C120.808 464.263 120.83 464.261 120.851 464.256L129.124 463.148C129.164 463.139 129.202 463.123 129.235 463.1C129.269 463.077 129.297 463.048 129.319 463.014C129.341 462.98 129.357 462.942 129.364 462.902C129.371 462.862 129.37 462.821 129.362 462.781C129.353 462.741 129.337 462.703 129.313 462.67C129.29 462.637 129.261 462.608 129.226 462.586C129.192 462.565 129.154 462.55 129.114 462.543C129.074 462.536 129.033 462.537 128.993 462.546L120.72 463.654C120.647 463.671 120.581 463.714 120.537 463.776C120.493 463.837 120.474 463.913 120.482 463.988C120.49 464.063 120.525 464.133 120.582 464.184C120.638 464.234 120.711 464.262 120.786 464.263V464.263Z" fill="#474646"/>
<path d="M251.51 416.03C251.587 416.03 251.662 416.001 251.719 415.948C251.776 415.895 251.811 415.823 251.817 415.746L253.186 397.991C253.192 397.91 253.166 397.829 253.113 397.767C253.06 397.705 252.984 397.666 252.902 397.66C252.821 397.654 252.74 397.68 252.678 397.733C252.616 397.787 252.578 397.862 252.572 397.944L251.203 415.698C251.197 415.78 251.223 415.86 251.276 415.922C251.329 415.984 251.404 416.022 251.485 416.028C251.494 416.029 251.502 416.03 251.51 416.03Z" fill="#474646"/>
<path d="M67.9375 560H385.045C385.208 560 385.365 559.935 385.48 559.82C385.595 559.704 385.66 559.548 385.66 559.384C385.66 559.221 385.595 559.065 385.48 558.949C385.365 558.834 385.208 558.769 385.045 558.769H67.9375C67.7746 558.769 67.6183 558.834 67.5031 558.949C67.3879 559.065 67.3231 559.221 67.3231 559.384C67.3231 559.548 67.3879 559.704 67.5031 559.82C67.6183 559.935 67.7746 560 67.9375 560Z" fill="#292A2E"/>
<ellipse cx="277.59" cy="272.281" rx="16.5241" ry="16.5502" fill="#F8A435"/>
<ellipse cx="325.892" cy="272.281" rx="16.5241" ry="16.5502" fill="#F8A435"/>
<ellipse cx="374.193" cy="272.281" rx="16.5241" ry="16.5502" fill="#F8A435"/>
<ellipse cx="421.223" cy="272.281" rx="16.5241" ry="16.5502" fill="#F8A435"/>
</g>
<defs>
<clipPath id="clip0_90_187">
<rect width="422" height="317" fill="white" transform="translate(31 243)"/>
</clipPath>
</defs>
</svg>
