<svg width="64" height="65" viewBox="0 0 64 65" fill="none" xmlns="http://www.w3.org/2000/svg">
<circle cx="32" cy="32.4529" r="32" fill="#EBF7FF"/>
<path d="M19.2732 14.2672H43.8487C44.8422 14.2672 45.6503 15.0753 45.6503 16.0688V48.8365C45.6503 49.83 44.8419 50.6387 43.8487 50.6387H19.2732C18.2803 50.6387 17.4716 49.83 17.4716 48.8365V16.0688C17.4716 15.0753 18.2797 14.2672 19.2732 14.2672ZM43.849 49.3747C44.146 49.3747 44.3878 49.1333 44.3878 48.836V16.0683C44.3878 15.771 44.146 15.5296 43.849 15.5296H19.2735C18.9762 15.5296 18.7347 15.771 18.7347 16.0683V48.836C18.7347 49.1333 18.9762 49.3747 19.2735 49.3747H43.849Z" fill="#2B69C5" stroke="#EBF7FF" stroke-width="0.2"/>
<path d="M41.1294 35.2892V35.2892C41.1294 35.7185 40.7812 36.0671 40.3521 36.0671H22.7699C22.3402 36.0671 21.9921 35.7185 21.9921 35.2892C21.9921 34.86 22.3408 34.5114 22.7699 34.5114H40.3521C40.7813 34.5114 41.1296 34.8597 41.1294 35.2892Z" fill="#2B69C5" stroke="#EBF7FF" stroke-width="0.2"/>
<path d="M41.1294 39.9695V39.9695C41.1294 40.3993 40.7812 40.7474 40.3521 40.7474H22.7699C22.3402 40.7474 21.9921 40.399 21.9921 39.9695C21.9921 39.5405 22.3407 39.1923 22.7699 39.1923H40.3521C40.7813 39.1923 41.1296 39.5404 41.1294 39.9695Z" fill="#2B69C5" stroke="#EBF7FF" stroke-width="0.2"/>
<path d="M41.1294 44.651V44.651C41.1294 45.0803 40.7812 45.4289 40.3521 45.4289H22.7699C22.3402 45.4289 21.9921 45.0803 21.9921 44.651C21.9921 44.2218 22.3408 43.8732 22.7699 43.8732H40.3521C40.7812 43.8732 41.1296 44.2218 41.1294 44.651Z" fill="#2B69C5" stroke="#EBF7FF" stroke-width="0.2"/>
<path d="M26.4014 30.0677L26.4219 30.0768C27.3678 30.4988 28.5993 30.7242 29.6005 30.8436C30.0999 30.9031 30.5396 30.936 30.8545 30.9541C31.0119 30.9631 31.138 30.9683 31.2246 30.9714C31.2679 30.9729 31.3013 30.9738 31.3238 30.9744L31.3494 30.975L31.3557 30.9751L31.3573 30.9752L31.3577 30.9752L31.3577 30.9752L31.3582 30.9752C32.8945 31.0077 34.2108 30.8146 35.1427 30.6135C35.6086 30.5129 35.9782 30.4104 36.2309 30.3332C36.3572 30.2946 36.4543 30.2623 36.5196 30.2398C36.5522 30.2285 36.5769 30.2197 36.5933 30.2137L36.6083 30.2082C36.7564 30.1136 36.8269 30.0332 36.86 29.9823C36.8768 29.9564 36.8843 29.9377 36.8875 29.9278C36.888 29.9262 36.8885 29.9247 36.8888 29.9236C36.8892 29.9223 36.8894 29.9212 36.8896 29.9205L36.8897 29.9186L36.8898 29.9186C37.0016 28.95 36.8176 28.3001 36.6115 27.8955C36.5082 27.6927 36.3986 27.5501 36.316 27.4591C36.2747 27.4136 36.2402 27.381 36.2165 27.3601C36.2047 27.3497 36.1956 27.3423 36.1898 27.3376L36.1836 27.3328L36.1826 27.3321L36.1825 27.332L36.1824 27.3319L36.1824 27.3319L36.1823 27.3318L36.1609 27.3164L36.15 27.292C36.0883 27.155 35.9406 27.0106 35.7353 26.8688C35.533 26.729 35.2876 26.6002 35.0483 26.4903C34.8094 26.3806 34.5792 26.2908 34.4086 26.2283C34.3233 26.1972 34.2531 26.1729 34.2042 26.1564C34.1799 26.1482 34.1608 26.1419 34.148 26.1377L34.1334 26.133L34.1298 26.1319L34.1289 26.1316L34.1287 26.1316L34.1287 26.1315L34.1255 26.1305L34.1255 26.1305C33.4472 25.8917 33.2147 25.6449 33.1362 25.4913C33.1361 25.4912 33.1361 25.491 33.136 25.4909L33.1891 25.4638H33.1232M26.4014 30.0677L26.0996 29.4732C26.0996 29.4732 26.1976 28.2374 27.0327 27.001C27.0327 27.001 27.2711 26.6762 27.8351 26.4591C27.8351 26.4591 29.1313 26.0651 29.671 25.6487C29.737 25.5742 29.8042 25.4928 29.8716 25.403C29.8721 25.4011 29.8728 25.4 29.8736 25.3986C29.8738 25.3983 29.874 25.398 29.8742 25.3976C29.8748 25.3957 29.8757 25.3929 29.8769 25.3895C29.8914 25.345 29.9451 25.181 29.9624 25.0909L30.0642 25.0885M26.4014 30.0677L26.3992 30.0677C26.397 30.0665 26.3944 30.0651 26.3915 30.0633C26.3766 30.0539 26.352 30.0348 26.3252 29.9979C26.272 29.9247 26.2054 29.7743 26.1997 29.4767M26.4014 30.0677L26.1997 29.4767M33.1232 25.4638C33.1214 25.4598 33.1199 25.4562 33.1186 25.4533C33.1178 25.4513 33.1171 25.4497 33.1166 25.4485M33.1232 25.4638H33.1208L33.1166 25.4485M33.1232 25.4638L33.729 20.7383M33.1166 25.4485L33.1164 25.4479L33.1075 25.4155M33.1166 25.4485C33.1165 25.4483 33.1164 25.4481 33.1163 25.448L33.1075 25.4284V25.4155M33.1075 25.4155V25.4152L33.1009 25.3912L33.1006 25.3903L33.0973 25.3782V25.3647V25.3638H33.197C33.1777 25.2933 33.1364 25.1397 33.1177 25.0444L33.0147 25.0375M33.1075 25.4155L33.1006 25.3903C33.0878 25.3435 33.0652 25.26 33.0458 25.1805C33.0361 25.1408 33.027 25.1013 33.0203 25.0674C33.0183 25.0577 33.0164 25.0476 33.0147 25.0375M33.0147 25.0375C33.0145 25.0366 33.0144 25.0357 33.0142 25.0349C33.0127 25.026 33.0114 25.0172 33.0104 25.0087L32.9994 25.0063C33.0029 24.9902 33.0056 24.9776 33.0073 24.9692L33.0093 24.9597L33.0097 24.9574L33.0098 24.9568L33.0099 24.9568L33.0099 24.9568L33.0099 24.9568L33.0931 24.9648C33.0921 24.9369 33.0918 24.9083 33.0927 24.8786L33.0485 24.8406M33.0147 25.0375L32.9973 25.0363C32.9922 24.9745 32.9903 24.9089 32.9943 24.8376L33.0485 24.8406M33.0485 24.8406L33.054 24.8409L33.0586 24.8412L33.0057 24.7911L33.0176 24.7785L33.0206 24.7754L33.0214 24.7746L33.0216 24.7744L33.0216 24.7743L33.0216 24.7743L33.0216 24.7743L33.2092 24.5769L33.2029 24.6896C33.368 24.4489 33.5036 24.1865 33.5995 23.92C33.803 23.7168 33.9076 23.2219 33.9076 23.2219C34.0428 22.8427 34.0031 22.6496 33.9411 22.5518C33.9601 22.4946 34.2849 21.4904 33.8266 20.7163M33.0485 24.8406L32.9994 24.7984C33.2151 24.5219 33.3901 24.2066 33.5054 23.8861L33.513 23.8651L33.5289 23.8492C33.6131 23.7651 33.6842 23.61 33.7354 23.462C33.7601 23.3905 33.7788 23.3248 33.7914 23.2771C33.7976 23.2532 33.8023 23.234 33.8054 23.2208L33.8088 23.2058L33.8096 23.2022L33.8098 23.2013L33.8098 23.2012L33.8098 23.2012L33.8098 23.2012L33.8098 23.2012L33.8126 23.188L33.8134 23.1883C33.944 22.822 33.8948 22.6656 33.8566 22.6054L33.8312 22.5654L33.8461 22.5204C33.8543 22.4958 33.9376 22.2391 33.9631 21.8955C33.9886 21.5506 33.955 21.1295 33.7405 20.7672L33.7324 20.7535L33.729 20.7383M33.8266 20.7163C33.8266 20.7163 33.6636 19.9841 32.8013 19.6585C32.0046 19.1704 30.8167 19.4629 30.8167 19.4629M33.8266 20.7163L33.7289 20.738L33.7288 20.7375L33.7277 20.733C33.7266 20.7286 33.7247 20.7218 33.722 20.7127C33.7166 20.6944 33.7077 20.6672 33.6945 20.6331C33.6678 20.5649 33.6237 20.4698 33.554 20.3648C33.4151 20.1555 33.1744 19.9063 32.766 19.752L32.7572 19.7487L32.7491 19.7438C32.3753 19.5148 31.9025 19.4657 31.5133 19.4776C31.3202 19.4835 31.1512 19.5043 31.0305 19.5236C30.9703 19.5332 30.9222 19.5425 30.8895 19.5492C30.8732 19.5526 30.8607 19.5554 30.8524 19.5573L30.8432 19.5594L30.841 19.5599L30.8406 19.56L30.8406 19.56L30.8167 19.4629M33.8266 20.7163L33.729 20.7381L33.729 20.7382L33.729 20.7383M30.8167 19.4629C29.3689 19.7072 29.0587 21.4102 29.0587 21.4102M30.8167 19.4629L30.8405 19.56L30.8405 19.56L30.8334 19.5618L30.8333 19.5615C30.1502 19.6768 29.7321 20.1357 29.4818 20.5774C29.3568 20.798 29.2754 21.0117 29.2252 21.1704C29.2001 21.2496 29.183 21.3148 29.1721 21.3599C29.1667 21.3824 29.1629 21.3998 29.1605 21.4115L29.1578 21.4244L29.1577 21.425M29.0587 21.4102C28.9726 22.1879 29.1806 22.6737 29.1897 22.6941C29.1154 22.8781 29.2498 23.3596 29.2498 23.3596M29.0587 21.4102L29.1571 21.4281L29.1571 21.4281L29.1572 21.4275L29.1577 21.425M29.0587 21.4102L29.1581 21.4212C29.158 21.4224 29.1578 21.4237 29.1577 21.425M29.2498 23.3596C29.296 23.6538 29.44 23.7431 29.4814 23.7635C29.5572 24.0377 29.6742 24.3068 29.8208 24.5546L29.806 24.4822L30.0413 24.7175L30.0437 24.7199M29.2498 23.3596L29.3461 23.3328L29.3461 23.3328L29.3492 23.344L29.3486 23.3441C29.3893 23.6038 29.5111 23.6667 29.5256 23.6738L29.5658 23.6937L29.5777 23.7369C29.6753 24.0897 29.8438 24.435 30.0569 24.7348L30.0136 24.7794M29.2498 23.3596L29.3461 23.3328L29.3461 23.3326L29.3458 23.3317L29.3448 23.3281L29.3409 23.3133C29.3375 23.3004 29.3328 23.2816 29.3272 23.2583C29.3161 23.2118 29.3022 23.1481 29.2905 23.0791C29.2787 23.0099 29.2697 22.9374 29.2677 22.8727C29.2657 22.8052 29.2719 22.7577 29.2824 22.7315L29.2983 22.6922L29.2811 22.6535C29.2771 22.6446 29.0751 22.1784 29.1577 21.425M30.0437 24.7199C30.0433 24.7196 30.0425 24.7187 30.0412 24.7176C30.039 24.7156 30.0354 24.7126 30.0308 24.7095L29.9941 24.7647L29.9796 24.7863L29.9863 24.785L30.0136 24.7794M30.0437 24.7199L30.044 24.7203L30.0443 24.7206C30.0443 24.7205 30.044 24.7203 30.0437 24.72L30.0437 24.7199ZM30.0136 24.7794L29.9753 24.8189C29.9804 24.8599 29.9867 24.9389 29.9768 25.0388L30.0663 25.0314L30.0664 25.0314L30.0664 25.0314L30.0664 25.0314L30.0664 25.0317L30.0666 25.0329L30.0675 25.0379L30.0709 25.057L30.0675 25.0576C30.067 25.067 30.0659 25.0771 30.0644 25.0873C30.0643 25.0877 30.0643 25.0881 30.0642 25.0885M30.0136 24.7794L30.0686 24.7682L30.0686 24.7683L30.0686 24.7684L30.0686 24.7686L30.0688 24.7692L30.0691 24.771L30.0701 24.7766C30.0709 24.7812 30.0719 24.7876 30.0731 24.7956C30.0753 24.8116 30.0779 24.8342 30.0797 24.8623C30.0834 24.9184 30.0839 24.9968 30.0717 25.0883L30.0642 25.0885M30.0642 25.0885C30.0611 25.1091 30.0564 25.1307 30.0518 25.15C30.0433 25.186 30.032 25.2266 30.0207 25.2648C30.0008 25.3323 29.9799 25.3961 29.9718 25.4207C29.9708 25.424 29.9699 25.4267 29.9693 25.4285L29.9661 25.4383L29.9657 25.439L29.9638 25.4468L29.9516 25.463C29.8824 25.5552 29.8135 25.6386 29.7458 25.715L29.7395 25.7221L29.7321 25.7279C29.4494 25.946 28.9777 26.153 28.5866 26.3034C28.3891 26.3793 28.2087 26.4421 28.0778 26.4858C28.0123 26.5077 27.959 26.5249 27.9221 26.5366L27.8794 26.5501L27.8682 26.5535L27.8678 26.5537C27.5988 26.6576 27.4086 26.7865 27.2864 26.8883C27.225 26.9394 27.1807 26.9837 27.1523 27.0146C27.1381 27.03 27.1278 27.0421 27.1214 27.05L27.1145 27.0585L27.114 27.0592C26.705 27.6656 26.476 28.2721 26.3493 28.7275C26.286 28.9553 26.2484 29.1449 26.2266 29.277C26.2158 29.343 26.2089 29.3946 26.2048 29.4295C26.2027 29.4469 26.2013 29.4601 26.2004 29.4688L26.1997 29.4767M26.1997 29.4767L33.729 20.7383M33.1973 25.4044V25.4069V25.4115V25.4597L33.2251 25.4455L33.1973 25.4599V25.4638H33.197H33.1898L33.1973 25.4044ZM33.1973 25.4044L33.2075 25.4015M33.1973 25.4044L33.2075 25.4015M33.2075 25.4015H33.1973M33.2075 25.4015H33.1973M33.1973 25.4015V25.3647V25.4015Z" fill="#2B69C5" stroke="#EBF7FF" stroke-width="0.2"/>
</svg>
