<svg width="24" height="24" viewBox="0 0 24 24" fill="none" xmlns="http://www.w3.org/2000/svg">
<path d="M23.7808 0.21898C23.8846 0.322979 23.9556 0.455192 23.9849 0.599196C24.0143 0.743201 24.0007 0.892651 23.9458 1.02898L15.2173 22.8495C15.1404 23.0416 15.0119 23.2089 14.8461 23.3327C14.6802 23.4566 14.4834 23.5323 14.2774 23.5515C14.0713 23.5708 13.8639 23.5328 13.678 23.4417C13.4921 23.3507 13.3349 23.2101 13.2238 23.0355L8.45677 15.543L0.964275 10.776C0.789252 10.665 0.648303 10.5077 0.55698 10.3217C0.465658 10.1356 0.427512 9.92793 0.446753 9.72156C0.465994 9.51519 0.541873 9.31814 0.666017 9.15217C0.790161 8.98619 0.957745 8.85774 1.15028 8.78098L22.9708 0.0554805C23.1071 0.0005989 23.2566 -0.0130207 23.4006 0.0163136C23.5446 0.0456478 23.6768 0.116643 23.7808 0.220481V0.21898ZM9.95378 15.105L14.0953 21.612L21.1948 3.86398L9.95378 15.105ZM20.1343 2.80348L2.38628 9.90298L8.89477 14.043L20.1358 2.80348H20.1343Z" fill="black"/>
</svg>
