<svg width="24" height="24" viewBox="0 0 24 24" fill="none" xmlns="http://www.w3.org/2000/svg">
<path d="M3.19436 23.25H0.750019V11.0312C0.747778 10.1965 0.940811 9.3729 1.31369 8.62613C1.81996 7.50892 2.63717 6.5611 3.6677 5.89592C4.69822 5.23073 5.89846 4.87631 7.12502 4.875H13.5261V0.75H15.5118L23.1857 8.42391L15.4846 16.125H13.5261V12H9.36307C8.49227 12.0021 7.64591 12.2881 6.95232 12.8147C6.25874 13.3412 5.75576 14.0795 5.51964 14.9177L3.19436 23.25ZM7.12502 6.375C6.18485 6.37601 5.26495 6.64829 4.4757 7.15916C3.68645 7.67004 3.06138 8.39781 2.6755 9.25514L2.66182 9.28392C2.38932 9.82597 2.24825 10.4245 2.25002 11.0312V21.0536L4.07486 14.5145C4.39971 13.3612 5.09176 12.3453 6.04607 11.6209C7.00039 10.8964 8.16492 10.5029 9.36307 10.5H15.0261V14.4621L21.0644 8.42391L15.0261 2.38566V6.375H7.12502Z" fill="black"/>
</svg>
