<svg width="26" height="26" viewBox="0 0 26 26" fill="none" xmlns="http://www.w3.org/2000/svg">
<path d="M11.5835 10.8333C11.5835 10.4191 11.2477 10.0833 10.8335 10.0833C10.4193 10.0833 10.0835 10.4191 10.0835 10.8333H11.5835ZM10.0835 17.3333C10.0835 17.7475 10.4193 18.0833 10.8335 18.0833C11.2477 18.0833 11.5835 17.7475 11.5835 17.3333H10.0835ZM15.9168 10.8333C15.9168 10.4191 15.581 10.0833 15.1668 10.0833C14.7526 10.0833 14.4168 10.4191 14.4168 10.8333H15.9168ZM14.4168 17.3333C14.4168 17.7475 14.7526 18.0833 15.1668 18.0833C15.581 18.0833 15.9168 17.7475 15.9168 17.3333H14.4168ZM20.2502 6.5C20.2502 6.08579 19.9144 5.75 19.5002 5.75C19.0859 5.75 18.7502 6.08579 18.7502 6.5H20.2502ZM7.25016 6.5C7.25016 6.08579 6.91438 5.75 6.50016 5.75C6.08595 5.75 5.75016 6.08579 5.75016 6.5H7.25016ZM4.3335 5.75C3.91928 5.75 3.5835 6.08579 3.5835 6.5C3.5835 6.91421 3.91928 7.25 4.3335 7.25V5.75ZM21.6668 7.25C22.081 7.25 22.4168 6.91421 22.4168 6.5C22.4168 6.08579 22.081 5.75 21.6668 5.75V7.25ZM15.5002 6.5C15.5002 6.91421 15.8359 7.25 16.2502 7.25C16.6644 7.25 17.0002 6.91421 17.0002 6.5H15.5002ZM9.00016 6.5C9.00016 6.91421 9.33595 7.25 9.75016 7.25C10.1644 7.25 10.5002 6.91421 10.5002 6.5H9.00016ZM10.0835 10.8333V17.3333H11.5835V10.8333H10.0835ZM14.4168 10.8333V17.3333H15.9168V10.8333H14.4168ZM18.7502 6.5V19.5H20.2502V6.5H18.7502ZM17.3335 20.9167H8.66683V22.4167H17.3335V20.9167ZM7.25016 19.5V6.5H5.75016V19.5H7.25016ZM8.66683 20.9167C7.88443 20.9167 7.25016 20.2824 7.25016 19.5H5.75016C5.75016 21.1108 7.056 22.4167 8.66683 22.4167V20.9167ZM18.7502 19.5C18.7502 20.2824 18.1159 20.9167 17.3335 20.9167V22.4167C18.9443 22.4167 20.2502 21.1108 20.2502 19.5H18.7502ZM4.3335 7.25H21.6668V5.75H4.3335V7.25ZM17.0002 6.5V5.41667H15.5002V6.5H17.0002ZM14.0835 2.5H11.9168V4H14.0835V2.5ZM9.00016 5.41667V6.5H10.5002V5.41667H9.00016ZM11.9168 2.5C10.306 2.5 9.00016 3.80584 9.00016 5.41667H10.5002C10.5002 4.63426 11.1344 4 11.9168 4V2.5ZM17.0002 5.41667C17.0002 3.80584 15.6943 2.5 14.0835 2.5V4C14.8659 4 15.5002 4.63426 15.5002 5.41667H17.0002Z" fill="#001A72"/>
</svg>
